<svg width="600" height="400" viewBox="0 0 600 400" fill="none" xmlns="http://www.w3.org/2000/svg">
  <!-- Background -->
  <rect width="600" height="400" fill="url(#gradient1)"/>
  
  <!-- Computer/Laptop -->
  <rect x="150" y="200" width="300" height="180" rx="10" fill="#374151"/>
  <rect x="160" y="210" width="280" height="160" rx="5" fill="#1F2937"/>
  <rect x="170" y="220" width="260" height="140" rx="3" fill="#111827"/>
  
  <!-- Screen Content -->
  <rect x="180" y="230" width="240" height="120" fill="#0F172A"/>
  <rect x="190" y="240" width="60" height="8" fill="#3B82F6"/>
  <rect x="190" y="255" width="80" height="6" fill="#10B981"/>
  <rect x="190" y="270" width="100" height="6" fill="#F59E0B"/>
  <rect x="190" y="285" width="70" height="6" fill="#EF4444"/>
  
  <!-- Code Lines -->
  <rect x="310" y="240" width="90" height="4" fill="#6B7280"/>
  <rect x="310" y="250" width="70" height="4" fill="#6B7280"/>
  <rect x="310" y="260" width="85" height="4" fill="#6B7280"/>
  <rect x="310" y="270" width="60" height="4" fill="#6B7280"/>
  <rect x="310" y="280" width="95" height="4" fill="#6B7280"/>
  
  <!-- Person/Student -->
  <circle cx="100" cy="150" r="30" fill="#F3E8FF"/>
  <circle cx="100" cy="140" r="20" fill="#FBBF24"/>
  <rect x="85" y="180" width="30" height="50" rx="15" fill="#3B82F6"/>
  <rect x="75" y="200" width="15" height="40" rx="7" fill="#FBBF24"/>
  <rect x="110" y="200" width="15" height="40" rx="7" fill="#FBBF24"/>
  
  <!-- Books/Documents -->
  <rect x="50" y="250" width="20" height="30" fill="#EF4444" transform="rotate(-10 60 265)"/>
  <rect x="70" y="255" width="20" height="30" fill="#10B981" transform="rotate(-5 80 270)"/>
  <rect x="90" y="260" width="20" height="30" fill="#3B82F6" transform="rotate(5 100 275)"/>
  
  <!-- Floating Tech Icons -->
  <circle cx="500" cy="80" r="25" fill="#8B5CF6" opacity="0.8"/>
  <rect x="485" y="65" width="30" height="30" rx="5" fill="white"/>
  <rect x="490" y="70" width="20" height="3" fill="#8B5CF6"/>
  <rect x="490" y="75" width="15" height="3" fill="#8B5CF6"/>
  <rect x="490" y="80" width="18" height="3" fill="#8B5CF6"/>
  <rect x="490" y="85" width="12" height="3" fill="#8B5CF6"/>
  
  <circle cx="520" cy="150" r="20" fill="#10B981" opacity="0.8"/>
  <path d="M510 145 L520 135 L530 145 L525 155 L515 155 Z" fill="white"/>
  
  <circle cx="480" cy="120" r="18" fill="#F59E0B" opacity="0.8"/>
  <rect x="470" y="110" width="20" height="20" rx="3" fill="white"/>
  <circle cx="480" cy="120" r="5" fill="#F59E0B"/>
  
  <!-- Network/Connection Lines -->
  <path d="M450 200 Q480 180 500 200 Q520 220 550 200" stroke="#3B82F6" stroke-width="2" fill="none" opacity="0.6"/>
  <path d="M400 250 Q430 230 450 250 Q470 270 500 250" stroke="#10B981" stroke-width="2" fill="none" opacity="0.6"/>
  
  <!-- Gradients -->
  <defs>
    <linearGradient id="gradient1" x1="0%" y1="0%" x2="100%" y2="100%">
      <stop offset="0%" style="stop-color:#EBF4FF;stop-opacity:1" />
      <stop offset="100%" style="stop-color:#DBEAFE;stop-opacity:1" />
    </linearGradient>
  </defs>
</svg>